<svg version="1.1" xmlns="http://www.w3.org/2000/svg" xmlns:xlink="http://www.w3.org/1999/xlink" width="201.598" height="202" viewBox="0,0,201.598,202"><g transform="translate(-218.903,-79.5)"><g data-paper-data="{&quot;isPaintingLayer&quot;:true}" fill-rule="nonzero" stroke="#dedede" stroke-width="1" stroke-linecap="butt" stroke-linejoin="miter" stroke-miterlimit="10" stroke-dasharray="" stroke-dashoffset="0" style="mix-blend-mode: normal"><g opacity="0.17"><path d="M419.405,179.324v3.549h-18.689l16.015,13.454l-2.152,2.562l-17.218,-14.464v8.086l6.154,6.517l-2.57,2.427l-6.953,-7.364l0.036,-0.034v-11.184h-24.568l16.932,23.595l0.518,0.56l0.172,0.401l0.911,1.27l0.662,1.096l-1.165,0.118l-1.543,0.254l-0.217,-0.027l-0.951,0.219l-28.897,4.751l17.472,17.472l8.047,-8.048l-0.001,-0.05l10.124,-0.29l0.101,3.533l-8.96,0.257l-5.718,5.718l22.402,1.947l-0.29,3.333l-21.143,-1.838l13.381,13.381l-2.509,2.509l-13.215,-13.215l1.811,20.838l-3.333,0.29l-1.947,-22.402l-5.718,5.718l-0.257,8.96l-3.533,-0.101l0.29,-10.124l0.05,0.001l7.908,-7.908l-17.372,-17.372l-4.711,28.657l-0.219,0.951l0.027,0.217l-0.254,1.543l-0.118,1.165l-1.096,-0.662l-1.27,-0.911l-0.401,-0.172l-0.56,-0.518l-23.792,-17.074v24.709h11.381l0.034,-0.036l7.364,6.953l-2.427,2.57l-6.517,-6.154h-8.086l14.464,17.218l-2.562,2.152l-13.651,-16.25v18.923h-3.548v-18.687l-13.454,16.015l-2.562,-2.152l14.464,-17.218h-8.086l-6.517,6.154l-2.427,-2.57l7.364,-6.953l0.034,0.036h11.185v-24.568l-23.595,16.932l-0.56,0.518l-0.401,0.172l-1.27,0.911l-1.096,0.662l-0.118,-1.165l-0.254,-1.543l0.027,-0.217l-0.219,-0.951l-4.751,-28.897l-17.472,17.472l8.047,8.048l0.05,-0.001l0.29,10.124l-3.533,0.101l-0.257,-8.96l-5.718,-5.718l-1.947,22.402l-3.333,-0.29l1.838,-21.143l-13.381,13.381l-2.509,-2.509l13.215,-13.215l-20.838,1.811l-0.29,-3.333l22.402,-1.947l-5.718,-5.718l-8.96,-0.257l0.101,-3.533l10.124,0.29l-0.001,0.05l7.908,7.908l17.372,-17.372l-28.657,-4.711l-0.951,-0.219l-0.217,0.027l-1.543,-0.254l-1.165,-0.118l0.662,-1.096l0.912,-1.27l0.172,-0.401l0.518,-0.56l16.932,-23.595h-24.568v11.184l0.036,0.034l-6.953,7.364l-2.57,-2.427l6.154,-6.517v-8.086l-17.218,14.464l-2.152,-2.562l16.016,-13.454h-18.689v-3.548h18.923l-16.25,-13.651l2.152,-2.562l17.218,14.463v-8.086l-6.154,-6.517l2.57,-2.427l6.953,7.364l-0.036,0.034v11.381h24.709l-17.074,-23.792l0.127,0.085l-0.817,-1.047l-0.912,-1.27l-0.662,-1.096l1.165,-0.118l1.543,-0.254l0.217,0.027l0.951,-0.219l28.657,-4.711l-17.372,-17.372l-7.908,7.908l0.001,0.05l-10.124,0.29l-0.101,-3.533l8.96,-0.257l5.718,-5.718l-22.402,-1.947l0.29,-3.333l20.838,1.811l-13.215,-13.215l2.509,-2.509l13.381,13.382l-1.838,-21.143l3.333,-0.29l1.947,22.402l5.718,-5.718l0.257,-8.96l3.533,0.101l-0.29,10.124l-0.05,-0.001l-8.047,8.047l17.472,17.472l4.751,-28.895l0.219,-0.951l-0.027,-0.217l0.254,-1.543l0.118,-1.165l1.096,0.662l1.27,0.911l0.401,0.172l0.56,0.518l23.595,16.932v-24.568h-11.184l-0.034,0.036l-7.364,-6.953l2.427,-2.57l6.517,6.154h8.086l-14.464,-17.218l2.562,-2.152l13.455,16.016v-18.689h3.548v18.923l13.651,-16.25l2.562,2.152l-14.464,17.218h8.086l6.517,-6.154l2.427,2.57l-7.364,6.953l-0.034,-0.036h-11.381v24.708l23.792,-17.074l0.56,-0.518l0.401,-0.172l1.27,-0.911l1.096,-0.662l0.118,1.165l0.254,1.543l-0.027,0.217l0.219,0.951l4.711,28.657l17.372,-17.372l-7.908,-7.908l-0.05,0.001l-0.29,-10.124l3.533,-0.101l0.257,8.96l5.718,5.718l1.947,-22.402l3.333,0.29l-1.811,20.838l13.214,-13.215l2.509,2.509l-13.381,13.381l21.143,-1.838l0.29,3.333l-22.402,1.947l5.718,5.718l8.96,0.257l-0.101,3.533l-10.124,-0.29l0.001,-0.05l-8.047,-8.048l-17.472,17.472l28.897,4.751l0.951,0.219l0.217,-0.027l1.543,0.254l1.165,0.118l-0.662,1.096l-0.911,1.27l-0.817,1.047l0.127,-0.085l-17.074,23.792h24.709v-11.381l-0.036,-0.034l6.953,-7.364l2.57,2.427l-6.154,6.517v8.086l17.218,-14.464l2.152,2.562l-16.25,13.651h18.923zM352.768,150.004l-20.374,20.374l17.095,-3.907l0.877,-0.551l-1.427,-7.191l3.193,-0.634l1.714,8.637l4.895,7.319l-2.706,1.81l-4.076,-6.094l-1.009,0.231l-14.851,9.326h28.813l17.539,-24.44zM327.567,175.207l-0.136,0.136v0l-3.982,3.982h5.632h0.192l-0.071,-0.113l10.622,-6.67l-12.228,2.794zM325.102,172.652l2.759,-12.073l-6.67,10.622l-0.113,-0.071v0.193v5.353l3.843,-3.843v0zM317.531,171.323v-0.256l-6.586,-10.488l2.794,12.228l-0.13,0.03l3.921,3.921v-5.435zM311.055,175.3l-12.072,-2.759l10.622,6.67l-0.071,0.113h0.192h5.353zM309.469,182.873l-10.488,6.586l12.073,-2.759l3.827,-3.827h-5.156zM313.608,189.163l0.13,0.03l-2.794,12.228l6.586,-10.488v-0.256v-5.435zM321.078,190.87l0.113,-0.071l6.67,10.622l-2.759,-12.073l-0.181,-0.181v0l-3.843,-3.843v5.353zM327.597,186.665l12.228,2.794l-10.488,-6.586h-0.256h-5.435l3.785,3.785v0l0.136,0.136zM321.078,135.49v28.814l9.326,-14.851l0.231,-1.009l-6.094,-4.076l1.81,-2.706l7.319,4.895l8.637,1.714l-0.634,3.193l-7.191,-1.427l-0.551,0.877l-3.824,16.734l20.252,-20.252l-4.841,-29.444zM288.407,147.635l20.374,20.374l-3.907,-17.095l-0.551,-0.877l-7.191,1.427l-0.634,-3.193l8.637,-1.714l7.319,-4.895l1.81,2.706l-6.094,4.076l0.231,1.009l9.129,14.537v-28.641l-24.243,-17.397zM273.893,179.324h28.813l-14.851,-9.326l-1.009,-0.231l-4.076,6.094l-2.706,-1.81l4.895,-7.319l1.714,-8.637l3.193,0.634l-1.427,7.191l0.877,0.551l16.734,3.824l-20.252,-20.252l-29.444,4.841zM285.798,211.957l20.252,-20.252l-16.734,3.824l-0.877,0.551l1.427,7.191l-3.193,0.634l-1.714,-8.637l-4.895,-7.319l2.706,-1.81l4.076,6.094l1.009,-0.231l14.537,-9.129h-28.641l-17.397,24.243zM317.53,226.651v-28.641l-9.129,14.537l-0.231,1.009l6.094,4.076l-1.81,2.706l-7.319,-4.895l-8.637,-1.714l0.634,-3.193l7.191,1.427l0.551,-0.877l3.907,-17.095l-20.374,20.374l4.88,29.683zM350.359,214.604l-20.252,-20.252l3.824,16.734l0.551,0.877l7.191,-1.427l0.634,3.193l-8.637,1.714l-7.319,4.895l-1.81,-2.706l6.094,-4.076l-0.231,-1.009l-9.326,-14.851v28.813l24.44,17.539zM365.054,182.873h-28.641l14.537,9.129l1.009,0.231l4.076,-6.094l2.706,1.81l-4.895,7.319l-1.714,8.637l-3.193,-0.634l1.427,-7.191l-0.877,-0.551l-17.095,-3.907l20.374,20.374l29.683,-4.88z" fill="#ffffff"/><path d="M419.405,179.324v3.549h-18.689l16.015,13.454l-2.152,2.562l-17.218,-14.464v8.086l6.154,6.517l-2.57,2.427l-6.953,-7.364l0.036,-0.034v-11.184h-24.568l16.932,23.595l0.518,0.56l0.172,0.401l0.911,1.27l0.662,1.096l-1.165,0.118l-1.543,0.254l-0.217,-0.027l-0.951,0.219l-28.897,4.751l17.472,17.472l8.047,-8.048l-0.001,-0.05l10.124,-0.29l0.101,3.533l-8.96,0.257l-5.718,5.718l22.402,1.947l-0.29,3.333l-21.143,-1.838l13.381,13.381l-2.509,2.509l-13.215,-13.215l1.811,20.838l-3.333,0.29l-1.947,-22.402l-5.718,5.718l-0.257,8.96l-3.533,-0.101l0.29,-10.124l0.05,0.001l7.908,-7.908l-17.372,-17.372l-4.711,28.657l-0.219,0.951l0.027,0.217l-0.254,1.543l-0.118,1.165l-1.096,-0.662l-1.27,-0.911l-0.401,-0.172l-0.56,-0.518l-23.792,-17.074v24.709h11.381l0.034,-0.036l7.364,6.953l-2.427,2.57l-6.517,-6.154h-8.086l14.464,17.218l-2.562,2.152l-13.651,-16.25v18.923h-3.548v-18.687l-13.454,16.015l-2.562,-2.152l14.464,-17.218h-8.086l-6.517,6.154l-2.427,-2.57l7.364,-6.953l0.034,0.036h11.185v-24.568l-23.595,16.932l-0.56,0.518l-0.401,0.172l-1.27,0.911l-1.096,0.662l-0.118,-1.165l-0.254,-1.543l0.027,-0.217l-0.219,-0.951l-4.751,-28.897l-17.472,17.472l8.047,8.048l0.05,-0.001l0.29,10.124l-3.533,0.101l-0.257,-8.96l-5.718,-5.718l-1.947,22.402l-3.333,-0.29l1.838,-21.143l-13.381,13.381l-2.509,-2.509l13.215,-13.215l-20.838,1.811l-0.29,-3.333l22.402,-1.947l-5.718,-5.718l-8.96,-0.257l0.101,-3.533l10.124,0.29l-0.001,0.05l7.908,7.908l17.372,-17.372l-28.657,-4.711l-0.951,-0.219l-0.217,0.027l-1.543,-0.254l-1.165,-0.118l0.662,-1.096l0.912,-1.27l0.172,-0.401l0.518,-0.56l16.932,-23.595h-24.568v11.184l0.036,0.034l-6.953,7.364l-2.57,-2.427l6.154,-6.517v-8.086l-17.218,14.464l-2.152,-2.562l16.016,-13.454h-18.689v-3.548h18.923l-16.25,-13.651l2.152,-2.562l17.218,14.463v-8.086l-6.154,-6.517l2.57,-2.427l6.953,7.364l-0.036,0.034v11.381h24.709l-17.074,-23.792l0.127,0.085l-0.817,-1.047l-0.912,-1.27l-0.662,-1.096l1.165,-0.118l1.543,-0.254l0.217,0.027l0.951,-0.219l28.657,-4.711l-17.372,-17.372l-7.908,7.908l0.001,0.05l-10.124,0.29l-0.101,-3.533l8.96,-0.257l5.718,-5.718l-22.402,-1.947l0.29,-3.333l20.838,1.811l-13.215,-13.215l2.509,-2.509l13.381,13.382l-1.838,-21.143l3.333,-0.29l1.947,22.402l5.718,-5.718l0.257,-8.96l3.533,0.101l-0.29,10.124l-0.05,-0.001l-8.047,8.047l17.472,17.472l4.751,-28.895l0.219,-0.951l-0.027,-0.217l0.254,-1.543l0.118,-1.165l1.096,0.662l1.27,0.911l0.401,0.172l0.56,0.518l23.595,16.932v-24.568h-11.184l-0.034,0.036l-7.364,-6.953l2.427,-2.57l6.517,6.154h8.086l-14.464,-17.218l2.562,-2.152l13.455,16.016v-18.689h3.548v18.923l13.651,-16.25l2.562,2.152l-14.464,17.218h8.086l6.517,-6.154l2.427,2.57l-7.364,6.953l-0.034,-0.036h-11.381v24.708l23.792,-17.074l0.56,-0.518l0.401,-0.172l1.27,-0.911l1.096,-0.662l0.118,1.165l0.254,1.543l-0.027,0.217l0.219,0.951l4.711,28.657l17.372,-17.372l-7.908,-7.908l-0.05,0.001l-0.29,-10.124l3.533,-0.101l0.257,8.96l5.718,5.718l1.947,-22.402l3.333,0.29l-1.811,20.838l13.214,-13.215l2.509,2.509l-13.381,13.381l21.143,-1.838l0.29,3.333l-22.402,1.947l5.718,5.718l8.96,0.257l-0.101,3.533l-10.124,-0.29l0.001,-0.05l-8.047,-8.048l-17.472,17.472l28.897,4.751l0.951,0.219l0.217,-0.027l1.543,0.254l1.165,0.118l-0.662,1.096l-0.911,1.27l-0.817,1.047l0.127,-0.085l-17.074,23.792h24.709v-11.381l-0.036,-0.034l6.953,-7.364l2.57,2.427l-6.154,6.517v8.086l17.218,-14.464l2.152,2.562l-16.25,13.651h18.923zM352.768,150.004l-20.374,20.374l17.095,-3.907l0.877,-0.551l-1.427,-7.191l3.193,-0.634l1.714,8.637l4.895,7.319l-2.706,1.81l-4.076,-6.094l-1.009,0.231l-14.851,9.326h28.813l17.539,-24.44zM327.567,175.207l-0.136,0.136v0l-3.982,3.982h5.632h0.192l-0.071,-0.113l10.622,-6.67l-12.228,2.794zM325.102,172.652l2.759,-12.073l-6.67,10.622l-0.113,-0.071v0.193v5.353l3.843,-3.843v0zM317.531,171.323v-0.256l-6.586,-10.488l2.794,12.228l-0.13,0.03l3.921,3.921v-5.435zM311.055,175.3l-12.072,-2.759l10.622,6.67l-0.071,0.113h0.192h5.353zM309.469,182.873l-10.488,6.586l12.073,-2.759l3.827,-3.827h-5.156zM313.608,189.163l0.13,0.03l-2.794,12.228l6.586,-10.488v-0.256v-5.435zM321.078,190.87l0.113,-0.071l6.67,10.622l-2.759,-12.073l-0.181,-0.181v0l-3.843,-3.843v5.353zM327.597,186.665l12.228,2.794l-10.488,-6.586h-0.256h-5.435l3.785,3.785v0l0.136,0.136zM321.078,135.49v28.814l9.326,-14.851l0.231,-1.009l-6.094,-4.076l1.81,-2.706l7.319,4.895l8.637,1.714l-0.634,3.193l-7.191,-1.427l-0.551,0.877l-3.824,16.734l20.252,-20.252l-4.841,-29.444zM288.407,147.635l20.374,20.374l-3.907,-17.095l-0.551,-0.877l-7.191,1.427l-0.634,-3.193l8.637,-1.714l7.319,-4.895l1.81,2.706l-6.094,4.076l0.231,1.009l9.129,14.537v-28.641l-24.243,-17.397zM273.893,179.324h28.813l-14.851,-9.326l-1.009,-0.231l-4.076,6.094l-2.706,-1.81l4.895,-7.319l1.714,-8.637l3.193,0.634l-1.427,7.191l0.877,0.551l16.734,3.824l-20.252,-20.252l-29.444,4.841zM285.798,211.957l20.252,-20.252l-16.734,3.824l-0.877,0.551l1.427,7.191l-3.193,0.634l-1.714,-8.637l-4.895,-7.319l2.706,-1.81l4.076,6.094l1.009,-0.231l14.537,-9.129h-28.641l-17.397,24.243zM317.53,226.651v-28.641l-9.129,14.537l-0.231,1.009l6.094,4.076l-1.81,2.706l-7.319,-4.895l-8.637,-1.714l0.634,-3.193l7.191,1.427l0.551,-0.877l3.907,-17.095l-20.374,20.374l4.88,29.683zM350.359,214.604l-20.252,-20.252l3.824,16.734l0.551,0.877l7.191,-1.427l0.634,3.193l-8.637,1.714l-7.319,4.895l-1.81,-2.706l6.094,-4.076l-0.231,-1.009l-9.326,-14.851v28.813l24.44,17.539zM365.054,182.873h-28.641l14.537,9.129l1.009,0.231l4.076,-6.094l2.706,1.81l-4.895,7.319l-1.714,8.637l-3.193,-0.634l1.427,-7.191l-0.877,-0.551l-17.095,-3.907l20.374,20.374l29.683,-4.88z" fill="none"/></g><g fill="#ffffff"><path d="M420.001,178.324v3.549h-18.689l16.015,13.454l-2.152,2.562l-17.218,-14.464v8.086l6.154,6.517l-2.57,2.427l-6.953,-7.364l0.036,-0.034v-11.184h-24.568l16.932,23.595l0.518,0.56l0.172,0.401l0.911,1.27l0.662,1.096l-1.165,0.118l-1.543,0.254l-0.217,-0.027l-0.951,0.219l-28.897,4.751l17.472,17.472l8.047,-8.048l-0.001,-0.05l10.124,-0.29l0.101,3.533l-8.96,0.257l-5.718,5.718l22.402,1.947l-0.29,3.333l-21.143,-1.838l13.381,13.381l-2.509,2.509l-13.215,-13.215l1.811,20.838l-3.333,0.29l-1.947,-22.402l-5.718,5.718l-0.257,8.96l-3.533,-0.101l0.29,-10.124l0.05,0.001l7.908,-7.908l-17.372,-17.372l-4.711,28.657l-0.219,0.951l0.027,0.217l-0.254,1.543l-0.118,1.165l-1.096,-0.662l-1.27,-0.911l-0.401,-0.172l-0.56,-0.518l-23.792,-17.074v24.709h11.381l0.034,-0.036l7.364,6.953l-2.427,2.57l-6.517,-6.154h-8.086l14.464,17.218l-2.562,2.152l-13.651,-16.25v18.923h-3.548v-18.687l-13.454,16.015l-2.562,-2.152l14.464,-17.218h-8.086l-6.517,6.154l-2.427,-2.57l7.364,-6.953l0.034,0.036h11.185v-24.568l-23.595,16.932l-0.56,0.518l-0.401,0.172l-1.27,0.911l-1.096,0.662l-0.118,-1.165l-0.254,-1.543l0.027,-0.217l-0.219,-0.951l-4.751,-28.897l-17.472,17.472l8.047,8.048l0.05,-0.001l0.29,10.124l-3.533,0.101l-0.257,-8.96l-5.718,-5.718l-1.947,22.402l-3.333,-0.29l1.838,-21.143l-13.381,13.381l-2.509,-2.509l13.215,-13.215l-20.838,1.811l-0.29,-3.333l22.402,-1.947l-5.718,-5.718l-8.96,-0.257l0.101,-3.533l10.124,0.29l-0.001,0.05l7.908,7.908l17.372,-17.372l-28.657,-4.711l-0.951,-0.219l-0.217,0.027l-1.543,-0.254l-1.165,-0.118l0.662,-1.096l0.912,-1.27l0.172,-0.401l0.518,-0.56l16.932,-23.595h-24.568v11.184l0.036,0.034l-6.953,7.364l-2.57,-2.427l6.154,-6.517v-8.086l-17.218,14.464l-2.152,-2.562l16.016,-13.454h-18.689v-3.548h18.923l-16.25,-13.651l2.152,-2.562l17.218,14.463v-8.086l-6.154,-6.517l2.57,-2.427l6.953,7.364l-0.036,0.034v11.381h24.709l-17.074,-23.792l0.127,0.085l-0.817,-1.047l-0.912,-1.27l-0.662,-1.096l1.165,-0.118l1.543,-0.254l0.217,0.027l0.951,-0.219l28.657,-4.711l-17.372,-17.372l-7.908,7.908l0.001,0.05l-10.124,0.29l-0.101,-3.533l8.96,-0.257l5.718,-5.718l-22.402,-1.947l0.29,-3.333l20.838,1.811l-13.215,-13.215l2.509,-2.509l13.381,13.382l-1.838,-21.143l3.333,-0.29l1.947,22.402l5.718,-5.718l0.257,-8.96l3.533,0.101l-0.29,10.124l-0.05,-0.001l-8.047,8.047l17.472,17.472l4.751,-28.895l0.219,-0.951l-0.027,-0.217l0.254,-1.543l0.118,-1.165l1.096,0.662l1.27,0.911l0.401,0.172l0.56,0.518l23.595,16.932v-24.568h-11.184l-0.034,0.036l-7.364,-6.953l2.427,-2.57l6.517,6.154h8.086l-14.464,-17.218l2.562,-2.152l13.455,16.016v-18.689h3.548v18.923l13.651,-16.25l2.562,2.152l-14.464,17.218h8.086l6.517,-6.154l2.427,2.57l-7.364,6.953l-0.034,-0.036h-11.381v24.708l23.792,-17.074l0.56,-0.518l0.401,-0.172l1.27,-0.911l1.096,-0.662l0.118,1.165l0.254,1.543l-0.027,0.217l0.219,0.951l4.711,28.657l17.372,-17.372l-7.908,-7.908l-0.05,0.001l-0.29,-10.124l3.533,-0.101l0.257,8.96l5.718,5.718l1.947,-22.402l3.333,0.29l-1.811,20.838l13.214,-13.215l2.509,2.509l-13.381,13.381l21.143,-1.838l0.29,3.333l-22.402,1.947l5.718,5.718l8.96,0.257l-0.101,3.533l-10.124,-0.29l0.001,-0.05l-8.047,-8.048l-17.472,17.472l28.897,4.751l0.951,0.219l0.217,-0.027l1.543,0.254l1.165,0.118l-0.662,1.096l-0.911,1.27l-0.817,1.047l0.127,-0.085l-17.074,23.792h24.709v-11.381l-0.036,-0.034l6.953,-7.364l2.57,2.427l-6.154,6.517v8.086l17.218,-14.464l2.152,2.562l-16.25,13.651h18.923zM353.364,149.004l-20.374,20.374l17.095,-3.907l0.877,-0.551l-1.427,-7.191l3.193,-0.634l1.714,8.637l4.895,7.319l-2.706,1.81l-4.076,-6.094l-1.009,0.231l-14.851,9.326h28.813l17.539,-24.44zM328.163,174.207l-0.136,0.136v0l-3.982,3.982h5.632h0.192l-0.071,-0.113l10.622,-6.67l-12.228,2.794zM325.698,171.652l2.759,-12.073l-6.67,10.622l-0.113,-0.071v0.193v5.353l3.843,-3.843v0zM318.127,170.323v-0.256l-6.586,-10.488l2.794,12.228l-0.13,0.03l3.921,3.921v-5.435zM311.651,174.3l-12.072,-2.759l10.622,6.67l-0.071,0.113h0.192h5.353zM310.065,181.873l-10.488,6.586l12.073,-2.759l3.827,-3.827h-5.156zM314.204,188.163l0.13,0.03l-2.794,12.228l6.586,-10.488v-0.256v-5.435zM321.674,189.87l0.113,-0.071l6.67,10.622l-2.759,-12.073l-0.181,-0.181v0l-3.843,-3.843v5.353zM328.193,185.665l12.228,2.794l-10.488,-6.586h-0.256h-5.435l3.785,3.785v0l0.136,0.136zM321.674,134.49v28.814l9.326,-14.851l0.231,-1.009l-6.094,-4.076l1.81,-2.706l7.319,4.895l8.637,1.714l-0.634,3.193l-7.191,-1.427l-0.551,0.877l-3.824,16.734l20.252,-20.252l-4.841,-29.444zM289.003,146.635l20.374,20.374l-3.907,-17.095l-0.551,-0.877l-7.191,1.427l-0.634,-3.193l8.637,-1.714l7.319,-4.895l1.81,2.706l-6.094,4.076l0.231,1.009l9.129,14.537v-28.641l-24.243,-17.397zM274.489,178.324h28.813l-14.851,-9.326l-1.009,-0.231l-4.076,6.094l-2.706,-1.81l4.895,-7.319l1.714,-8.637l3.193,0.634l-1.427,7.191l0.877,0.551l16.734,3.824l-20.252,-20.252l-29.444,4.841zM286.394,210.957l20.252,-20.252l-16.734,3.824l-0.877,0.551l1.427,7.191l-3.193,0.634l-1.714,-8.637l-4.895,-7.319l2.706,-1.81l4.076,6.094l1.009,-0.231l14.537,-9.129h-28.641l-17.397,24.243zM318.126,225.651v-28.641l-9.129,14.537l-0.231,1.009l6.094,4.076l-1.81,2.706l-7.319,-4.895l-8.637,-1.714l0.634,-3.193l7.191,1.427l0.551,-0.877l3.907,-17.095l-20.374,20.374l4.88,29.683zM350.955,213.604l-20.252,-20.252l3.824,16.734l0.551,0.877l7.191,-1.427l0.634,3.193l-8.637,1.714l-7.319,4.895l-1.81,-2.706l6.094,-4.076l-0.231,-1.009l-9.326,-14.851v28.813l24.44,17.539zM365.65,181.873h-28.641l14.537,9.129l1.009,0.231l4.076,-6.094l2.706,1.81l-4.895,7.319l-1.714,8.637l-3.193,-0.634l1.427,-7.191l-0.877,-0.551l-17.095,-3.907l20.374,20.374l29.683,-4.88z"/><path d="M420.001,178.324v3.549h-18.689l16.015,13.454l-2.152,2.562l-17.218,-14.464v8.086l6.154,6.517l-2.57,2.427l-6.953,-7.364l0.036,-0.034v-11.184h-24.568l16.932,23.595l0.518,0.56l0.172,0.401l0.911,1.27l0.662,1.096l-1.165,0.118l-1.543,0.254l-0.217,-0.027l-0.951,0.219l-28.897,4.751l17.472,17.472l8.047,-8.048l-0.001,-0.05l10.124,-0.29l0.101,3.533l-8.96,0.257l-5.718,5.718l22.402,1.947l-0.29,3.333l-21.143,-1.838l13.381,13.381l-2.509,2.509l-13.215,-13.215l1.811,20.838l-3.333,0.29l-1.947,-22.402l-5.718,5.718l-0.257,8.96l-3.533,-0.101l0.29,-10.124l0.05,0.001l7.908,-7.908l-17.372,-17.372l-4.711,28.657l-0.219,0.951l0.027,0.217l-0.254,1.543l-0.118,1.165l-1.096,-0.662l-1.27,-0.911l-0.401,-0.172l-0.56,-0.518l-23.792,-17.074v24.709h11.381l0.034,-0.036l7.364,6.953l-2.427,2.57l-6.517,-6.154h-8.086l14.464,17.218l-2.562,2.152l-13.651,-16.25v18.923h-3.548v-18.687l-13.454,16.015l-2.562,-2.152l14.464,-17.218h-8.086l-6.517,6.154l-2.427,-2.57l7.364,-6.953l0.034,0.036h11.185v-24.568l-23.595,16.932l-0.56,0.518l-0.401,0.172l-1.27,0.911l-1.096,0.662l-0.118,-1.165l-0.254,-1.543l0.027,-0.217l-0.219,-0.951l-4.751,-28.897l-17.472,17.472l8.047,8.048l0.05,-0.001l0.29,10.124l-3.533,0.101l-0.257,-8.96l-5.718,-5.718l-1.947,22.402l-3.333,-0.29l1.838,-21.143l-13.381,13.381l-2.509,-2.509l13.215,-13.215l-20.838,1.811l-0.29,-3.333l22.402,-1.947l-5.718,-5.718l-8.96,-0.257l0.101,-3.533l10.124,0.29l-0.001,0.05l7.908,7.908l17.372,-17.372l-28.657,-4.711l-0.951,-0.219l-0.217,0.027l-1.543,-0.254l-1.165,-0.118l0.662,-1.096l0.912,-1.27l0.172,-0.401l0.518,-0.56l16.932,-23.595h-24.568v11.184l0.036,0.034l-6.953,7.364l-2.57,-2.427l6.154,-6.517v-8.086l-17.218,14.464l-2.152,-2.562l16.016,-13.454h-18.689v-3.548h18.923l-16.25,-13.651l2.152,-2.562l17.218,14.463v-8.086l-6.154,-6.517l2.57,-2.427l6.953,7.364l-0.036,0.034v11.381h24.709l-17.074,-23.792l0.127,0.085l-0.817,-1.047l-0.912,-1.27l-0.662,-1.096l1.165,-0.118l1.543,-0.254l0.217,0.027l0.951,-0.219l28.657,-4.711l-17.372,-17.372l-7.908,7.908l0.001,0.05l-10.124,0.29l-0.101,-3.533l8.96,-0.257l5.718,-5.718l-22.402,-1.947l0.29,-3.333l20.838,1.811l-13.215,-13.215l2.509,-2.509l13.381,13.382l-1.838,-21.143l3.333,-0.29l1.947,22.402l5.718,-5.718l0.257,-8.96l3.533,0.101l-0.29,10.124l-0.05,-0.001l-8.047,8.047l17.472,17.472l4.751,-28.895l0.219,-0.951l-0.027,-0.217l0.254,-1.543l0.118,-1.165l1.096,0.662l1.27,0.911l0.401,0.172l0.56,0.518l23.595,16.932v-24.568h-11.184l-0.034,0.036l-7.364,-6.953l2.427,-2.57l6.517,6.154h8.086l-14.464,-17.218l2.562,-2.152l13.455,16.016v-18.689h3.548v18.923l13.651,-16.25l2.562,2.152l-14.464,17.218h8.086l6.517,-6.154l2.427,2.57l-7.364,6.953l-0.034,-0.036h-11.381v24.708l23.792,-17.074l0.56,-0.518l0.401,-0.172l1.27,-0.911l1.096,-0.662l0.118,1.165l0.254,1.543l-0.027,0.217l0.219,0.951l4.711,28.657l17.372,-17.372l-7.908,-7.908l-0.05,0.001l-0.29,-10.124l3.533,-0.101l0.257,8.96l5.718,5.718l1.947,-22.402l3.333,0.29l-1.811,20.838l13.214,-13.215l2.509,2.509l-13.381,13.381l21.143,-1.838l0.29,3.333l-22.402,1.947l5.718,5.718l8.96,0.257l-0.101,3.533l-10.124,-0.29l0.001,-0.05l-8.047,-8.048l-17.472,17.472l28.897,4.751l0.951,0.219l0.217,-0.027l1.543,0.254l1.165,0.118l-0.662,1.096l-0.911,1.27l-0.817,1.047l0.127,-0.085l-17.074,23.792h24.709v-11.381l-0.036,-0.034l6.953,-7.364l2.57,2.427l-6.154,6.517v8.086l17.218,-14.464l2.152,2.562l-16.25,13.651h18.923zM353.364,149.004l-20.374,20.374l17.095,-3.907l0.877,-0.551l-1.427,-7.191l3.193,-0.634l1.714,8.637l4.895,7.319l-2.706,1.81l-4.076,-6.094l-1.009,0.231l-14.851,9.326h28.813l17.539,-24.44zM328.163,174.207l-0.136,0.136v0l-3.982,3.982h5.632h0.192l-0.071,-0.113l10.622,-6.67l-12.228,2.794zM325.698,171.652l2.759,-12.073l-6.67,10.622l-0.113,-0.071v0.193v5.353l3.843,-3.843v0zM318.127,170.323v-0.256l-6.586,-10.488l2.794,12.228l-0.13,0.03l3.921,3.921v-5.435zM311.651,174.3l-12.072,-2.759l10.622,6.67l-0.071,0.113h0.192h5.353zM310.065,181.873l-10.488,6.586l12.073,-2.759l3.827,-3.827h-5.156zM314.204,188.163l0.13,0.03l-2.794,12.228l6.586,-10.488v-0.256v-5.435zM321.674,189.87l0.113,-0.071l6.67,10.622l-2.759,-12.073l-0.181,-0.181v0l-3.843,-3.843v5.353zM328.193,185.665l12.228,2.794l-10.488,-6.586h-0.256h-5.435l3.785,3.785v0l0.136,0.136zM321.674,134.49v28.814l9.326,-14.851l0.231,-1.009l-6.094,-4.076l1.81,-2.706l7.319,4.895l8.637,1.714l-0.634,3.193l-7.191,-1.427l-0.551,0.877l-3.824,16.734l20.252,-20.252l-4.841,-29.444zM289.003,146.635l20.374,20.374l-3.907,-17.095l-0.551,-0.877l-7.191,1.427l-0.634,-3.193l8.637,-1.714l7.319,-4.895l1.81,2.706l-6.094,4.076l0.231,1.009l9.129,14.537v-28.641l-24.243,-17.397zM274.489,178.324h28.813l-14.851,-9.326l-1.009,-0.231l-4.076,6.094l-2.706,-1.81l4.895,-7.319l1.714,-8.637l3.193,0.634l-1.427,7.191l0.877,0.551l16.734,3.824l-20.252,-20.252l-29.444,4.841zM286.394,210.957l20.252,-20.252l-16.734,3.824l-0.877,0.551l1.427,7.191l-3.193,0.634l-1.714,-8.637l-4.895,-7.319l2.706,-1.81l4.076,6.094l1.009,-0.231l14.537,-9.129h-28.641l-17.397,24.243zM318.126,225.651v-28.641l-9.129,14.537l-0.231,1.009l6.094,4.076l-1.81,2.706l-7.319,-4.895l-8.637,-1.714l0.634,-3.193l7.191,1.427l0.551,-0.877l3.907,-17.095l-20.374,20.374l4.88,29.683zM350.955,213.604l-20.252,-20.252l3.824,16.734l0.551,0.877l7.191,-1.427l0.634,3.193l-8.637,1.714l-7.319,4.895l-1.81,-2.706l6.094,-4.076l-0.231,-1.009l-9.326,-14.851v28.813l24.44,17.539zM365.65,181.873h-28.641l14.537,9.129l1.009,0.231l4.076,-6.094l2.706,1.81l-4.895,7.319l-1.714,8.637l-3.193,-0.634l1.427,-7.191l-0.877,-0.551l-17.095,-3.907l20.374,20.374l29.683,-4.88z"/></g></g></g></svg>