<svg version="1.1" xmlns="http://www.w3.org/2000/svg" xmlns:xlink="http://www.w3.org/1999/xlink" width="68.53038" height="41.172" viewBox="0,0,68.53038,41.172"><defs><linearGradient x1="285.73549" y1="180.00015" x2="354.26512" y2="180.00015" gradientUnits="userSpaceOnUse" id="color-1"><stop offset="0.012" stop-color="#a7a9ac"/><stop offset="1" stop-color="#414042"/></linearGradient><linearGradient x1="288.3058" y1="179.99947" x2="351.69413" y2="179.99947" gradientUnits="userSpaceOnUse" id="color-2"><stop offset="0" stop-color="#d1d2d3"/><stop offset="1" stop-color="#a4a5a8"/></linearGradient></defs><g transform="translate(-285.73481,-159.414)"><g data-paper-data="{&quot;isPaintingLayer&quot;:true}" fill-rule="nonzero" stroke="none" stroke-width="1" stroke-linecap="butt" stroke-linejoin="miter" stroke-miterlimit="10" stroke-dasharray="" stroke-dashoffset="0" style="mix-blend-mode: normal"><path d="M354.26519,194.10581c0,3.5786 -2.90234,6.48019 -6.48019,6.48019h-55.57075c-3.5786,0 -6.47944,-2.90234 -6.47944,-6.48019v-28.21237c0,-3.5786 2.90084,-6.47944 6.47944,-6.47944h55.57c3.58011,0 6.48019,2.90084 6.48019,6.47944v28.21237z" fill="url(#color-1)"/><path d="M351.69345,165.89344v28.21162c0,2.15529 -1.7524,3.90845 -3.9092,3.90845h-55.57c-2.15454,0 -3.90845,-1.75315 -3.90845,-3.90845v-28.21237c0,-2.15529 1.75391,-3.90845 3.90845,-3.90845h55.57c2.1568,0 3.9092,1.75391 3.9092,3.9092z" fill="url(#color-2)"/><text transform="translate(297.78402,187.33592) scale(0.63583,0.63583)" font-size="40" xml:space="preserve" fill="#ffffff" fill-rule="nonzero" stroke="none" stroke-width="1" stroke-linecap="butt" stroke-linejoin="miter" stroke-miterlimit="10" stroke-dasharray="" stroke-dashoffset="0" font-family="&quot;GoodDog&quot;, Marker" font-weight="normal" text-anchor="start" style="mix-blend-mode: normal"><tspan x="0" dy="0">Text</tspan></text></g></g></svg>