<svg version="1.1" xmlns="http://www.w3.org/2000/svg" xmlns:xlink="http://www.w3.org/1999/xlink" width="170" height="169" viewBox="0,0,170,169"><g transform="translate(-341.5,-155)"><g stroke="none" stroke-miterlimit="10"><path d="M415.5,155h22l17,4l14,6l10,7l10,9l9,11l6,11l4,9l3,14l1,9v9l-3,19l-5,14l-8,13l-11,12l-9,8l-17,9l-21,5h-22l-18,-4l-16,-8l-6,-4l-10,-9l-9,-10l-6,-10l-6,-16l-2,-9l-1,-17l2,-16l4,-14l5,-10l6,-9l9,-10l9,-8l16,-9l18,-5zM416.5,173l-12,3l-16,8l-7,6v1l17,1l13,4l9,6l6,8l3,7v5l-4,1l-9,-6l-4,-1h-12l-6,2l-8,4l-9,6l-8,11l-5,16l-1,8l6,12l7,9h2l9,-19l10,-14l9,-10l7,-5l3,-1h7l-1,5l-7,6l-4,8l-2,6v13l4,14l7,9l6,5l8,4h8l14,-5l10,-7l4,-4l-21,-9l-8,-6l-7,-7l-5,-10l-2,-8v-8l5,-1l5,9l7,6l11,2l13,-3l11,-6l9,-8l4,-6v-8l-6,-17l-7,-10l-5,-5l-5,12l-6,10l-8,10l-10,8l-5,1l-1,-5l6,-13l1,-4v-14l-4,-10l-6,-9l-8,-7z" fill="#fbfbfb"/><path d="M416.5,169h13l8,7l7,8l5,10l1,6v14l-4,11l-3,5l8,-6l8,-9l7,-12l5,-16l4,1l9,10l8,15l4,13v9l-8,11l-11,8l-12,5l-4,1h-15l-6,-3l-7,-6l-2,-4l2,10l7,11l7,6l9,5l16,6l6,1l-2,4l-12,10l-15,7l-7,2h-9l-10,-5l-8,-7l-7,-12l-3,-11v-15l4,-10l4,-6l3,-4l-10,8l-9,10l-9,15l-8,20l-4,-2l-9,-10l-8,-16v-8l5,-16l6,-11l8,-7l10,-6l12,-4h12l10,4l3,1l-5,-9l-8,-7l-10,-4l-5,-1h-26l4,-6l12,-10l16,-8l6,-2zM416.5,173l-12,3l-16,8l-7,6v1l17,1l13,4l9,6l6,8l3,7v5l-4,1l-9,-6l-4,-1h-12l-6,2l-8,4l-9,6l-8,11l-5,16l-1,8l6,12l7,9h2l9,-19l10,-14l9,-10l7,-5l3,-1h7l-1,5l-7,6l-4,8l-2,6v13l4,14l7,9l6,5l8,4h8l14,-5l10,-7l4,-4l-21,-9l-8,-6l-7,-7l-5,-10l-2,-8v-8l5,-1l5,9l7,6l11,2l13,-3l11,-6l9,-8l4,-6v-8l-6,-17l-7,-10l-5,-5l-5,12l-6,10l-8,10l-10,8l-5,1l-1,-5l6,-13l1,-4v-14l-4,-10l-6,-9l-8,-7z" fill="#080808"/><path d="M415.5,155h22l17,4l14,6l10,7l10,9l9,11l6,11l4,9l3,14l1,9v9l-3,19l-5,14l-8,13l-11,12l-9,8l-17,9l-21,5h-22l-18,-4l-16,-8l-6,-4l-10,-9l-9,-10l-6,-10l-6,-16l-2,-9l-1,-17l2,-16l4,-14l5,-10l6,-9l9,-10l9,-8l16,-9l18,-5zM419.5,158l-16,3l-16,7l-11,7l-11,10l-8,11l-8,16l-3,12l-1,7v17l2,12l5,14l6,11l9,11l10,9l15,9l14,5l11,2h18l13,-3l14,-5l14,-9l12,-11l9,-13l7,-16l2,-7l1,-9v-18l-3,-15l-7,-16l-8,-11l-8,-9l-12,-9l-17,-8l-12,-3l-7,-1z" fill="#060606"/></g></g></svg>