<svg version="1.1" xmlns="http://www.w3.org/2000/svg" xmlns:xlink="http://www.w3.org/1999/xlink" width="29.46377" height="24.59973" viewBox="0,0,29.46377,24.59973"><g transform="translate(-411.19234,-226.79591)"><g stroke="#000000" stroke-linecap="round" stroke-miterlimit="10"><path d="M431.10255,233.51019c0.80694,0.13972 5.94156,-0.85332 7.68571,1.47143c2.02079,2.69349 0.1163,9.65217 -1.68571,10.52857c-0.24819,0.12071 -4.36375,-1.17997 -7,-0.9c-1.17188,0.12446 -0.01064,4.93089 -1.63352,6.28545c-0.69993,0.5842 -9.21051,-3.92832 -11.36838,-5.30276c-3.11067,-1.98133 -5.5877,-3.64963 -5.3981,-5.88269c0.25943,-3.05547 2.93965,-4.42299 5.72059,-6.20349c4.90648,-3.14138 11.18292,-5.45545 12.57941,-5.49651c0.79935,-0.0235 -0.61485,5.20308 1.1,5.5z" fill="#000000"/><path d="M431.60255,232.79591c0.80694,0.13972 5.94156,-0.85332 7.68571,1.47143c2.02079,2.69349 0.1163,9.65217 -1.68571,10.52857c-0.24819,0.1207 -4.36375,-1.17997 -7,-0.9c-1.17188,0.12446 -0.01064,4.93089 -1.63352,6.28545c-0.69993,0.5842 -9.21051,-3.92832 -11.36838,-5.30276c-3.11067,-1.98133 -5.5877,-3.64963 -5.3981,-5.88269c0.25942,-3.05547 2.93964,-4.42299 5.72058,-6.20349c4.90649,-3.14138 11.18293,-5.45545 12.57942,-5.49651c0.79935,-0.02351 -0.61485,5.20308 1.1,5.5z" fill="#ffffff"/></g></g></svg>