<svg version="1.1" xmlns="http://www.w3.org/2000/svg" xmlns:xlink="http://www.w3.org/1999/xlink" width="105.81941" height="105.81941" viewBox="0,0,105.81941,105.81941"><defs><linearGradient x1="374.0903" y1="240.00102" x2="479.9097" y2="240.00102" gradientUnits="userSpaceOnUse" id="color-1"><stop offset="0" stop-color="#8dc63f"/><stop offset="1" stop-color="#006838"/></linearGradient><radialGradient cx="427" cy="240.00102" r="43.27555" gradientUnits="userSpaceOnUse" id="color-2"><stop offset="0" stop-color="#d7df23"/><stop offset="1" stop-color="#009444"/></radialGradient><radialGradient cx="428.43432" cy="242.38182" r="34.01045" gradientUnits="userSpaceOnUse" id="color-3"><stop offset="0" stop-color="#ffffff"/><stop offset="1" stop-color="#cfcfcf"/></radialGradient></defs><g transform="translate(-374.0903,-187.0903)"><g stroke="none" stroke-miterlimit="10"><path d="M479.9097,240c0,29.17301 -23.73415,52.9097 -52.9097,52.9097c-29.17428,0 -52.9097,-23.7367 -52.9097,-52.9097c0,-29.17428 23.73415,-52.9097 52.9097,-52.9097c29.17556,0 52.9097,23.7367 52.9097,52.9097z" fill="url(#color-1)" stroke-width="1"/><path d="M383.72369,240.00127c0,-23.90084 19.37547,-43.27631 43.27631,-43.27631c23.90084,0 43.27631,19.37547 43.27631,43.27631c0,23.90084 -19.37547,43.27631 -43.27631,43.27631c-23.90084,0 -43.27631,-19.37547 -43.27631,-43.27631z" fill="url(#color-2)" stroke-width="1"/><path d="M461.71259,227.76914l-41.20957,41.4353c-1.63435,1.6438 -3.81094,2.54878 -6.12993,2.54878c0,0 0,0 -0.0006,0c-1.4492,0 -2.88459,-0.36494 -4.15091,-1.05682c-0.11615,-0.06125 -0.24471,-0.13931 -0.37329,-0.21727l-0.08223,-0.05002c-0.06423,-0.03808 -0.12858,-0.07796 -0.19162,-0.11973c-0.53885,-0.34942 -1.04907,-0.76736 -1.49385,-1.22766l-13.01298,-13.47258c-3.31554,-3.43288 -3.22029,-8.92332 0.21319,-12.24016c1.62173,-1.56643 3.75674,-2.42915 6.0114,-2.42915c2.37019,0 4.58078,0.93899 6.22757,2.64285l6.92234,7.16646l34.99643,-35.18684c1.63664,-1.64619 3.81691,-2.55236 6.13828,-2.55236c2.30227,0 4.47002,0.89364 6.10188,2.51785c3.38405,3.36557 3.39897,8.85789 0.03391,12.24135z" fill="#828282" stroke-width="0.59874"/><path d="M460.44507,226.51056l-41.20957,41.4353c-2.20473,2.21716 -5.54533,2.61003 -8.15894,1.18351c-0.11435,-0.06125 -0.22453,-0.13036 -0.33639,-0.19758c-0.05777,-0.0364 -0.11555,-0.06911 -0.17213,-0.106c-0.42738,-0.27802 -0.83349,-0.60309 -1.20319,-0.98592l-13.01238,-13.4714c-2.63569,-2.72916 -2.56071,-7.07836 0.16904,-9.71464c2.72806,-2.63509 7.07656,-2.55952 9.71286,0.16964l8.18938,8.47745l36.28175,-36.47943c2.67556,-2.69048 7.02476,-2.70241 9.71346,-0.02735c2.69108,2.67616 2.70241,7.02536 0.02615,9.71643z" fill="url(#color-3)" stroke-width="0.59874"/></g></g></svg>