<svg version="1.1" xmlns="http://www.w3.org/2000/svg" xmlns:xlink="http://www.w3.org/1999/xlink" width="213.49326" height="212.13462" viewBox="0,0,213.49326,212.13462"><g transform="translate(-319.2484,-133.46394)"><g fill="none" stroke="#7d4817" stroke-width="5" stroke-linecap="round" stroke-miterlimit="10"><path d="M412.49938,136.96472c0,0 9.86393,-1.00079 14.80241,-1.00079c4.83702,0 14.5304,1.00079 14.5304,1.00079"/><path d="M374.20727,148.30553c0,0 9.89139,-5.01615 14.68971,-7.0997c4.49151,-1.95031 13.71725,-3.26552 13.71725,-3.26552"/><path d="M342.56906,175.85028c0,0 5.64762,-7.25768 8.83332,-10.63289c3.26697,-3.4613 11.60974,-9.51552 11.60974,-9.51552"/><path d="M325.41337,211.01708c0,0 2.71096,-8.87566 4.40475,-13.41399c1.72929,-4.6335 7.09448,-13.8794 7.09448,-13.8794"/><path d="M530.24166,225.50424c0,0 1.01031,9.77093 1.0103,14.66286c0,4.79142 -1.0103,14.39341 -1.0103,14.39341"/><path d="M516.60971,187.84577c0,0 5.93771,9.32599 8.04109,14.07907c1.96888,4.44915 4.20235,13.58792 4.20235,13.58792"/><path d="M489.64743,156.17624c0,0 7.35599,5.45181 10.76332,8.6075c3.49423,3.23616 9.60609,11.50028 9.60609,11.50028"/><path d="M454.14169,139.54132c0,0 8.99358,2.18379 13.57513,3.8616c4.67759,1.71299 14.01151,7.02761 14.01151,7.02761"/><path d="M439.84108,343.09855c0,0 -9.86822,0.9584 -14.80664,0.93719c-4.83697,-0.02077 -14.52589,-1.06317 -14.52589,-1.06317"/><path d="M478.17308,330.35107c0,0 -9.69678,5.24868 -14.50418,7.3116c-4.49999,1.93101 -13.73533,4.10376 -13.73533,4.10376"/><path d="M509.98232,303.41615c0,0 -5.5136,7.03476 -8.71406,10.39624c-3.28208,3.44723 -11.65127,9.46558 -11.65127,9.46558"/><path d="M526.87795,268.16621c0,0 -2.17025,8.82245 -3.88387,13.35349c-1.74955,4.62602 -7.15516,13.84881 -7.15516,13.84881"/><path d="M322.6945,252.75807c0,0 -0.96753,-9.77518 -0.94612,-14.66705c0.02097,-4.79137 1.07329,-14.38894 1.07329,-14.38894"/><path d="M336.16151,290.47473c0,0 -5.89685,-9.35141 -7.9794,-14.11347c-1.94939,-4.45757 -4.14282,-13.60584 -4.14282,-13.60584"/><path d="M363.00001,322.07646c0,0 -7.34714,-5.30007 -10.74062,-8.47036c-3.48004,-3.25115 -9.55568,-11.54142 -9.55568,-11.54142"/><path d="M398.12339,339.47509c0,0 -8.68979,-2.65051 -13.26394,-4.34798c-4.67006,-1.73306 -13.98061,-7.08771 -13.98061,-7.08771"/></g></g></svg>