<svg version="1.1" xmlns="http://www.w3.org/2000/svg" xmlns:xlink="http://www.w3.org/1999/xlink" width="68.53038" height="41.86396" viewBox="0,0,68.53038,41.86396"><g transform="translate(-392.23481,-218.72204)"><g stroke-miterlimit="10"><path d="M460.76519,254.10581c0,3.5786 -2.90234,6.48019 -6.48019,6.48019h-55.57075c-3.5786,0 -6.47944,-2.90234 -6.47944,-6.48019v-28.21237c0,-3.5786 2.90084,-6.47944 6.47944,-6.47944h55.57c3.58011,0 6.48019,2.90084 6.48019,6.47944v28.21237z" fill="#a7a9ac" stroke="none" stroke-width="1"/><path d="M458.19345,225.89344v28.21162c0,2.15529 -1.7524,3.90845 -3.9092,3.90845h-55.57c-2.15454,0 -3.90845,-1.75315 -3.90845,-3.90845v-28.21237c0,-2.15529 1.75391,-3.90845 3.90845,-3.90845h55.57c2.1568,0 3.9092,1.75391 3.9092,3.9092z" fill="#d1d2d3" stroke="none" stroke-width="1"/><text transform="translate(400.7415,249.08892) scale(0.7393,0.7393)" font-size="40" xml:space="preserve" fill="#000000" stroke="#000000" stroke-width="2" font-family="&quot;GoodDog&quot;, Marker" font-weight="normal" text-anchor="start"><tspan x="0" dy="0">Text</tspan></text><text transform="translate(400.59657,248.57945) scale(0.73722,0.73722)" font-size="40" xml:space="preserve" fill="#ffffff" stroke="none" stroke-width="1" font-family="&quot;GoodDog&quot;, Marker" font-weight="normal" text-anchor="start"><tspan x="0" dy="0">Text</tspan></text></g></g></svg>