<svg version="1.1" xmlns="http://www.w3.org/2000/svg" xmlns:xlink="http://www.w3.org/1999/xlink" width="24.65163" height="29.45357" viewBox="0,0,24.65163,29.45357"><g transform="translate(-413.59845,-224.3898)"><g stroke="#000000" stroke-linecap="round" stroke-miterlimit="10"><path d="M414.81274,235.04336c0.04106,1.39649 2.35513,7.67293 5.49651,12.57941c1.7805,2.78094 3.14802,5.46116 6.20349,5.72059c2.23306,0.1896 3.90136,-2.28743 5.88269,-5.39811c1.37444,-2.15787 5.88696,-10.66845 5.30276,-11.36837c-1.35456,-1.62288 -6.16099,-0.46164 -6.28545,-1.63352c-0.27997,-2.63625 1.02071,-6.75181 0.9,-7c-0.8764,-1.80201 -7.83508,-3.70651 -10.52857,-1.68572c-2.32475,1.74415 -1.33171,6.87877 -1.47143,7.68571c-0.29692,1.71485 -5.5235,0.30065 -5.5,1.1z" fill="#000000"/><path d="M414.09845,234.54336c0.04106,1.39649 2.35513,7.67293 5.49651,12.57941c1.7805,2.78094 3.14802,5.46116 6.20349,5.72058c2.23306,0.1896 3.90136,-2.28743 5.88269,-5.3981c1.37444,-2.15787 5.88696,-10.66846 5.30276,-11.36837c-1.35456,-1.62289 -6.16099,-0.46164 -6.28545,-1.63352c-0.27998,-2.63625 1.0207,-6.75181 0.9,-7c-0.8764,-1.80201 -7.83508,-3.70651 -10.52857,-1.68571c-2.32475,1.74415 -1.33171,6.87877 -1.47143,7.68571c-0.29692,1.71485 -5.52351,0.30065 -5.5,1.1z" fill="#ffffff"/></g></g></svg>