<svg version="1.1" xmlns="http://www.w3.org/2000/svg" xmlns:xlink="http://www.w3.org/1999/xlink" width="24.64706" height="24.64706" viewBox="0,0,24.64706,24.64706"><g transform="translate(-414.17647,-227.67647)"><g stroke-miterlimit="10"><path d="M426.5,228.67647c6.25381,0 11.32353,5.06971 11.32353,11.32353c0,6.25381 -5.06972,11.32353 -11.32353,11.32353c-6.25381,0 -11.32353,-5.06971 -11.32353,-11.32353c0,-6.25381 5.06972,-11.32353 11.32353,-11.32353z" fill="#9966ff" stroke="#000000" stroke-width="2"/><path d="M419.13681,242.07596c-0.96458,0.86305 -5.48395,-0.36196 -4.59881,-2.40885c-0.01005,-0.09106 -0.01521,-0.1836 -0.01521,-0.27734c0,-1.38071 1.11929,-2.5 2.5,-2.5c1.96749,-1.31127 3.94131,3.55124 2.11402,5.18619z" fill="#000000" stroke="none" stroke-width="0.5"/><path d="M432.34097,239.51098c0,-1.38071 1.11929,-2.5 2.5,-2.5c1.38071,0 2.5,1.11929 2.5,2.5c0,1.38071 -1.11929,2.5 -2.5,2.5c-1.38071,0 -2.5,-1.11929 -2.5,-2.5z" fill="#000000" stroke="none" stroke-width="0.5"/><path d="M429.96994,243.42342c0.19302,-0.47887 0.62549,-1.01532 1.59439,-1.01532c1.75,0 1.75,1.75 1.75,1.75l-0.45511,1.29839c-3.90726,4.27925 -9.57556,5.76017 -12.89633,-0.10508c0,0 -0.82968,-1.54082 0.71115,-2.3705c1.54082,-0.82968 2.3705,0.71115 2.3705,0.71115c1.78694,3.60255 4.77815,1.96543 6.9254,-0.26864z" fill="#000000" stroke="none" stroke-width="0.5"/></g></g></svg>