<svg version="1.1" xmlns="http://www.w3.org/2000/svg" xmlns:xlink="http://www.w3.org/1999/xlink" width="199.51923" height="200.01089" viewBox="0,0,199.51923,200.01089"><g transform="translate(-326.71047,-139.99437)"><g fill="none" stroke="#2fafff" stroke-width="5" stroke-linecap="round" stroke-miterlimit="10"><path d="M413.37822,143.43233c0,0 9.24476,-0.93796 13.87325,-0.93796c4.5334,0 13.61831,0.93796 13.61831,0.93796"/><path d="M377.48974,154.06127c0,0 9.27051,-4.70128 13.76762,-6.65404c4.20956,-1.82789 12.85621,-3.06055 12.85621,-3.06055"/><path d="M347.83749,179.87699c0,0 5.2931,-6.80211 8.27885,-9.96545c3.0619,-3.24402 10.88099,-8.91822 10.88099,-8.91822"/><path d="M331.75867,212.83634c0,0 2.54079,-8.31852 4.12826,-12.57198c1.62074,-4.34265 6.64915,-13.00818 6.64915,-13.00818"/><path d="M523.7297,226.41414c0,0 0.94689,9.1576 0.94688,13.74246c0,4.49065 -0.94688,13.48992 -0.94688,13.48992"/><path d="M510.95344,191.11951c0,0 5.56499,8.74059 7.53634,13.19531c1.84529,4.16987 3.93855,12.73499 3.93855,12.73499"/><path d="M485.6836,161.43791c0,0 6.89426,5.10959 10.0877,8.0672c3.2749,3.03302 9.00311,10.77841 9.00311,10.77841"/><path d="M452.40659,145.84719c0,0 8.42905,2.04671 12.72301,3.6192c4.38397,1.60546 13.13198,6.58648 13.13198,6.58648"/><path d="M439.00364,336.62692c0,0 -9.24878,0.89824 -13.87721,0.87836c-4.53335,-0.01948 -13.61409,-0.99643 -13.61409,-0.99643"/><path d="M474.92951,324.67962c0,0 -9.0881,4.91922 -13.59374,6.85264c-4.21752,1.8098 -12.87315,3.84616 -12.87315,3.84616"/><path d="M504.74206,299.43543c0,0 -5.16752,6.59318 -8.16707,9.74366c-3.07606,3.23084 -10.91991,8.87142 -10.91991,8.87142"/><path d="M520.57713,266.39816c0,0 -2.03401,8.26867 -3.64008,12.51528c-1.63973,4.33564 -6.70602,12.9795 -6.70602,12.9795"/><path d="M329.21047,251.9572c0,0 -0.9068,-9.16158 -0.88672,-13.74639c0.01965,-4.49061 1.00592,-13.48573 1.00592,-13.48573"/><path d="M341.83215,287.30636c0,0 -5.5267,-8.76441 -7.47853,-13.22756c-1.82702,-4.17776 -3.88277,-12.75178 -3.88277,-12.75178"/><path d="M366.98597,316.92444c0,0 -6.88595,-4.96738 -10.06642,-7.93867c-3.26159,-3.04707 -8.95585,-10.81695 -8.95585,-10.81695"/><path d="M399.90462,333.23092c0,0 -8.14432,-2.48413 -12.43135,-4.07505c-4.37691,-1.62427 -13.10303,-6.64281 -13.10303,-6.64281"/></g></g></svg>