<svg version="1.1" xmlns="http://www.w3.org/2000/svg" xmlns:xlink="http://www.w3.org/1999/xlink" width="29.45357" height="24.65163" viewBox="0,0,29.45357,24.65163"><g transform="translate(-411.20255,-226.79591)"><g stroke="#000000" stroke-linecap="round" stroke-miterlimit="10"><path d="M430.00255,228.01019c-1.39649,0.04106 -7.67293,2.35513 -12.57941,5.49651c-2.78094,1.7805 -5.46116,3.14802 -5.72059,6.20349c-0.1896,2.23306 2.28743,3.90136 5.3981,5.88269c2.15787,1.37444 10.66845,5.88696 11.36838,5.30276c1.62288,-1.35456 0.46164,-6.16099 1.63352,-6.28545c2.63625,-0.27997 6.75181,1.02071 7,0.9c1.80201,-0.8764 3.7065,-7.83508 1.68571,-10.52857c-1.74415,-2.32475 -6.87877,-1.33171 -7.68571,-1.47143c-1.71485,-0.29692 -0.30065,-5.5235 -1.1,-5.5z" fill="#000000"/><path d="M430.50255,227.29591c-1.39649,0.04106 -7.67293,2.35513 -12.57942,5.49651c-2.78094,1.7805 -5.46116,3.14802 -5.72058,6.20349c-0.1896,2.23306 2.28743,3.90136 5.3981,5.88269c2.15787,1.37444 10.66845,5.88696 11.36838,5.30276c1.62288,-1.35456 0.46164,-6.16099 1.63352,-6.28545c2.63625,-0.27997 6.75181,1.0207 7,0.9c1.80201,-0.8764 3.7065,-7.83508 1.68571,-10.52857c-1.74415,-2.32475 -6.87877,-1.33171 -7.68571,-1.47143c-1.71485,-0.29692 -0.30065,-5.52351 -1.1,-5.5z" fill="#ffffff"/></g></g></svg>