<svg version="1.1" xmlns="http://www.w3.org/2000/svg" xmlns:xlink="http://www.w3.org/1999/xlink" width="212.54716" height="212.13459" viewBox="0,0,212.54716,212.13459"><g transform="translate(-320.1945,-133.46394)"><g fill="none" stroke="#2fafff" stroke-width="5" stroke-linecap="round" stroke-miterlimit="10"><path d="M412.49938,136.96471c0,0 9.86393,-1.00078 14.80241,-1.00078c4.83702,0 14.5304,1.00078 14.5304,1.00078"/><path d="M374.20727,148.30552c0,0 9.8914,-5.01615 14.68971,-7.09969c4.4915,-1.95031 13.71725,-3.26553 13.71725,-3.26553"/><path d="M342.56906,175.85025c0,0 5.64761,-7.25768 8.83333,-10.63289c3.26697,-3.46129 11.60974,-9.51552 11.60974,-9.51552"/><path d="M325.41336,211.01706c0,0 2.71096,-8.87565 4.40475,-13.41399c1.72929,-4.6335 7.09448,-13.8794 7.09448,-13.8794"/><path d="M530.24166,225.50423c0,0 1.01031,9.77093 1.0103,14.66286c0,4.79141 -1.0103,14.39341 -1.0103,14.39341"/><path d="M516.60971,187.84574c0,0 5.93771,9.32599 8.04109,14.07907c1.96888,4.44915 4.20233,13.58792 4.20233,13.58792"/><path d="M489.64742,156.17621c0,0 7.356,5.45181 10.76332,8.6075c3.49424,3.23616 9.60609,11.50029 9.60609,11.50029"/><path d="M454.14168,139.54131c0,0 8.99359,2.18379 13.57513,3.8616c4.67759,1.71299 14.01149,7.02761 14.01149,7.02761"/><path d="M439.84107,343.09852c0,0 -9.86822,0.9584 -14.80664,0.93719c-4.83697,-0.02078 -14.52589,-1.06317 -14.52589,-1.06317"/><path d="M478.17308,330.35105c0,0 -9.69678,5.24868 -14.50418,7.3116c-4.49999,1.93101 -13.73533,4.10376 -13.73533,4.10376"/><path d="M509.98232,303.41613c0,0 -5.51362,7.03476 -8.71406,10.39624c-3.28208,3.44723 -11.65127,9.46558 -11.65127,9.46558"/><path d="M526.87795,268.16618c0,0 -2.17024,8.82246 -3.88387,13.35349c-1.74955,4.62602 -7.15516,13.8488 -7.15516,13.8488"/><path d="M322.6945,252.75804c0,0 -0.96753,-9.77518 -0.94611,-14.66705c0.02097,-4.79137 1.07329,-14.38894 1.07329,-14.38894"/><path d="M336.16151,290.47471c0,0 -5.89685,-9.35141 -7.9794,-14.11348c-1.94939,-4.45757 -4.14282,-13.60583 -4.14282,-13.60583"/><path d="M363.00001,322.07646c0,0 -7.34714,-5.30007 -10.74062,-8.47036c-3.48004,-3.25115 -9.55567,-11.54142 -9.55567,-11.54142"/><path d="M398.12339,339.47507c0,0 -8.68979,-2.65051 -13.26394,-4.34798c-4.67005,-1.73306 -13.98061,-7.08771 -13.98061,-7.08771"/></g></g></svg>