<svg version="1.1" xmlns="http://www.w3.org/2000/svg" xmlns:xlink="http://www.w3.org/1999/xlink" width="24.903" height="31.5012" viewBox="0,0,24.903,31.5012"><g transform="translate(-393.75289,-253.01665)"><g fill="#ffffff" stroke="none" stroke-miterlimit="10"><path d="M399.41655,266.85109c-0.97609,0.78087 -1.75695,-0.19522 -1.75695,-0.19522l-0.59578,-0.76275c-2.54957,-4.30762 -0.40681,-11.97277 5.07249,-12.76192c0,0 1.2438,-0.12438 1.36818,1.11942c0.12438,1.2438 -1.11942,1.36818 -1.11942,1.36818c-3.65342,0.04698 -4.68534,6.51682 -3.17751,8.98808l0.40422,0.48725c0,0 0.78087,0.97609 -0.19522,1.75695z" stroke-width="0.5"/><path d="M401.13946,264.55409c0.02237,-0.26459 0.17704,-1.17909 1.24622,-1.17909c1.25,0 1.25,1.25 1.25,1.25l-0.05272,0.48418c-0.45954,1.53177 -0.81782,4.81817 -1.99563,5.95128c-3.31216,3.18647 -6.38952,-2.15175 -7.69469,-4.75145c0,0 -0.55902,-1.11803 0.55902,-1.67705c1.11803,-0.55902 1.67705,0.55902 1.67705,0.55902c0.48197,0.96836 2.15222,4.30997 3.2867,4.55937c0.41221,0.09062 0.41768,-0.74216 0.53505,-1.14757c0.39126,-1.35146 0.78538,-2.70061 1.18899,-4.04869z" stroke-width="0.5"/><path d="M412.19983,258.35472c0.39528,-1.18585 1.58114,-0.79057 1.58114,-0.79057l0.67309,0.27079c5.27251,3.56986 3.94761,11.884 -0.65784,15.6374c-2.62814,2.14191 -6.54458,2.59779 -9.79737,2.89753c0,0 -1.24487,0.11317 -1.35804,-1.1317c-0.11317,-1.24487 1.1317,-1.35804 1.1317,-1.35804c2.72721,-0.2442 6.23714,-0.56032 8.45263,-2.35247c3.25864,-2.63595 4.73429,-9.069 0.84216,-11.6126l-0.07691,0.02079c0,0 -1.18585,-0.39528 -0.79057,-1.58114z" stroke-width="0.5"/><path d="M418.54628,256.83924c-0.46424,1.1606 -1.62483,0.69636 -1.62483,0.69636l-0.28514,-0.1668c-1.4935,-0.15416 -5.46059,-2.71829 -6.8232,-1.6557c-0.3138,0.24471 0.14445,3.57436 0.19138,4.03753c0,0 0.12438,1.2438 -1.11942,1.36818c-1.2438,0.12438 -1.36818,-1.11942 -1.36818,-1.11942c-0.33433,-3.38348 -0.44864,-7.80179 4.48018,-6.85183c1.85427,0.35739 2.93156,1.54543 4.888,1.73365l0.96486,0.3332c0,0 1.1606,0.46424 0.69636,1.62483z" stroke-width="0.5"/><text transform="translate(399.26068,282.90625) scale(0.12893,0.12893)" font-size="40" xml:space="preserve" fill="#ffffff" stroke-width="1" font-family="&quot;GoodDog&quot;, Marker" font-weight="normal" text-anchor="start"><tspan x="0" dy="0">TEMP</tspan></text></g></g></svg>