<svg version="1.1" xmlns="http://www.w3.org/2000/svg" xmlns:xlink="http://www.w3.org/1999/xlink" width="199.54668" height="199.15998" viewBox="0,0,199.54668,199.15998"><g transform="translate(-326.69674,-139.98061)"><g fill="none" stroke="#7d4817" stroke-width="5" stroke-linecap="round" stroke-miterlimit="10"><path d="M413.37636,143.41871c0,0 9.24607,-0.9381 13.87521,-0.9381c4.53404,0 13.62023,0.9381 13.62023,0.9381"/><path d="M377.48282,154.04915c0,0 9.27181,-4.70194 13.76957,-6.65498c4.21017,-1.82815 12.85802,-3.06097 12.85802,-3.06097"/><path d="M347.82639,179.86853c0,0 5.29386,-6.80307 8.28001,-9.96686c3.06233,-3.24449 10.88252,-8.91948 10.88252,-8.91948"/><path d="M331.74531,212.83253c0,0 2.54115,-8.3197 4.12884,-12.57376c1.62097,-4.34326 6.65009,-13.01001 6.65009,-13.01001"/><path d="M523.74342,226.41223c0,0 0.94703,9.15889 0.94702,13.7444c0,4.49129 -0.94702,13.49183 -0.94702,13.49183"/><path d="M510.96536,191.11264c0,0 5.56578,8.74182 7.53741,13.19718c1.84555,4.17046 3.93912,12.73679 3.93912,12.73679"/><path d="M485.69196,161.42685c0,0 6.89522,5.11032 10.08912,8.06834c3.27536,3.03345 9.00438,10.77992 9.00438,10.77992"/><path d="M452.41025,145.83391c0,0 8.43023,2.047 12.7248,3.61971c4.38459,1.60569 13.13385,6.58741 13.13385,6.58741"/><path d="M439.00542,336.64059c0,0 -9.25009,0.89837 -13.87917,0.87849c-4.53399,-0.01947 -13.61601,-0.99657 -13.61601,-0.99657"/><path d="M474.93635,324.69159c0,0 -9.08939,4.91991 -13.59566,6.85361c-4.21812,1.81005 -12.87497,3.84671 -12.87497,3.84671"/><path d="M504.7531,299.44384c0,0 -5.16824,6.59411 -8.16822,9.74503c-3.07649,3.2313 -10.92145,8.87267 -10.92145,8.87267"/><path d="M520.59041,266.40191c0,0 -2.03431,8.26982 -3.64059,12.51705c-1.63996,4.33625 -6.70697,12.98134 -6.70697,12.98134"/><path d="M329.19674,251.95892c0,0 -0.90693,-9.16288 -0.88686,-13.74833c0.01966,-4.49124 1.00606,-13.48764 1.00606,-13.48764"/><path d="M341.8202,287.31306c0,0 -5.52748,-8.76565 -7.47958,-13.22942c-1.82728,-4.17835 -3.88332,-12.75359 -3.88332,-12.75359"/><path d="M366.97757,316.93529c0,0 -6.88692,-4.96808 -10.06784,-7.93979c-3.26205,-3.0475 -8.95712,-10.81848 -8.95712,-10.81848"/><path d="M399.90087,333.2441c0,0 -8.14547,-2.48449 -12.4331,-4.07563c-4.37753,-1.6245 -13.10488,-6.64375 -13.10488,-6.64375"/></g></g></svg>