<svg version="1.1" xmlns="http://www.w3.org/2000/svg" xmlns:xlink="http://www.w3.org/1999/xlink" width="83" height="83" viewBox="0,0,83,83"><defs><linearGradient x1="277.375" y1="178.1328" x2="360.375" y2="178.1328" gradientUnits="userSpaceOnUse" id="color-1"><stop offset="0" stop-color="#8dc63f"/><stop offset="1" stop-color="#006838"/></linearGradient><radialGradient cx="318.875" cy="178.1328" r="33.9434" gradientUnits="userSpaceOnUse" id="color-2"><stop offset="0" stop-color="#d7df23"/><stop offset="1" stop-color="#009444"/></radialGradient><radialGradient cx="320.00002" cy="180.00019" r="26.67627" gradientUnits="userSpaceOnUse" id="color-3"><stop offset="0" stop-color="#ffffff"/><stop offset="1" stop-color="#cfcfcf"/></radialGradient></defs><g transform="translate(-277.375,-136.632)"><g data-paper-data="{&quot;isPaintingLayer&quot;:true}" fill-rule="nonzero" stroke="none" stroke-linecap="butt" stroke-linejoin="miter" stroke-miterlimit="10" stroke-dasharray="" stroke-dashoffset="0" style="mix-blend-mode: normal"><path d="M360.375,178.132c0,22.882 -18.616,41.5 -41.5,41.5c-22.883,0 -41.5,-18.618 -41.5,-41.5c0,-22.883 18.616,-41.5 41.5,-41.5c22.884,0 41.5,18.618 41.5,41.5z" fill="url(#color-1)" stroke-width="1"/><path d="M284.931,178.133c0,-18.74675 15.19725,-33.944 33.944,-33.944c18.74675,0 33.944,15.19725 33.944,33.944c0,18.74675 -15.19725,33.944 -33.944,33.944c-18.74675,0 -33.944,-15.19725 -33.944,-33.944z" fill="url(#color-2)" stroke-width="1"/><path d="M346.102,168.53866l-32.32294,32.49999c-1.28191,1.28932 -2.98913,1.99915 -4.80804,1.99915c0,0 0,0 -0.00047,0c-1.13669,0 -2.26254,-0.28624 -3.25579,-0.82892c-0.0911,-0.04804 -0.19194,-0.10927 -0.29279,-0.17042l-0.0645,-0.03923c-0.05038,-0.02987 -0.10085,-0.06115 -0.1503,-0.09391c-0.42265,-0.27407 -0.82284,-0.60188 -1.17171,-0.96292l-10.2068,-10.56729c-2.60056,-2.6926 -2.52585,-6.99905 0.16722,-9.60063c1.27201,-1.22864 2.94662,-1.90532 4.71507,-1.90532c1.85907,0 3.59296,0.7365 4.88463,2.07293l5.42957,5.62105l27.44963,-27.59898c1.28371,-1.2912 2.99381,-2.00196 4.81459,-2.00196c1.8058,0 3.50608,0.70093 4.78604,1.97489c2.6543,2.6398 2.666,6.94773 0.0266,9.60157z" fill="#828282" stroke-width="0.59874"/><path d="M345.10781,167.55149l-32.32294,32.49999c-1.72929,1.73904 -4.34951,2.04719 -6.39951,0.92829c-0.08969,-0.04804 -0.17611,-0.10225 -0.26385,-0.15497c-0.04531,-0.02855 -0.09063,-0.05421 -0.13501,-0.08314c-0.33522,-0.21807 -0.65375,-0.47304 -0.94373,-0.77331l-10.20633,-10.56636c-2.06732,-2.14063 -2.00851,-5.55195 0.13259,-7.61973c2.13977,-2.06685 5.55054,-2.00757 7.61833,0.13306l6.42338,6.64933l28.45778,-28.61283c2.09859,-2.11029 5.50991,-2.11965 7.6188,-0.02145c2.11076,2.09906 2.11965,5.51038 0.02051,7.62113z" fill="url(#color-3)" stroke-width="0.59874"/></g></g></svg>