<svg version="1.1" xmlns="http://www.w3.org/2000/svg" xmlns:xlink="http://www.w3.org/1999/xlink" width="55.97297" height="55.97297" viewBox="0,0,55.97297,55.97297"><defs><linearGradient x1="521.01164" y1="281.67608" x2="576.98461" y2="281.67608" gradientUnits="userSpaceOnUse" id="color-1"><stop offset="0" stop-color="#8dc63f"/><stop offset="1" stop-color="#006838"/></linearGradient><radialGradient cx="548.99812" cy="281.67608" r="22.89052" gradientUnits="userSpaceOnUse" id="color-2"><stop offset="0" stop-color="#d7df23"/><stop offset="1" stop-color="#009444"/></radialGradient><radialGradient cx="549.75681" cy="282.9354" r="17.98976" gradientUnits="userSpaceOnUse" id="color-3"><stop offset="0" stop-color="#ffffff"/><stop offset="1" stop-color="#cfcfcf"/></radialGradient></defs><g transform="translate(-521.01164,-253.68906)"><g data-paper-data="{&quot;isPaintingLayer&quot;:true}" fill-rule="nonzero" stroke="none" stroke-linecap="butt" stroke-linejoin="miter" stroke-miterlimit="10" stroke-dasharray="" stroke-dashoffset="0" style="mix-blend-mode: normal"><path d="M576.98461,281.67554c0,15.43101 -12.55413,27.98649 -27.98649,27.98649c-15.43168,0 -27.98649,-12.55548 -27.98649,-27.98649c0,-15.43168 12.55413,-27.98649 27.98649,-27.98649c15.43236,0 27.98649,12.55548 27.98649,27.98649z" fill="url(#color-1)" stroke-width="1"/><path d="M526.1072,281.67622c0,-12.64231 10.24862,-22.89092 22.89092,-22.89092c12.64231,0 22.89092,10.24862 22.89092,22.89092c0,12.64231 -10.24862,22.89092 -22.89092,22.89092c-12.64231,0 -22.89092,-10.24862 -22.89092,-22.89092z" fill="url(#color-2)" stroke-width="1"/><path d="M567.35928,275.20605l-21.79772,21.91712c-0.86449,0.86948 -2.01579,1.34817 -3.24241,1.34817c0,0 0,0 -0.00032,0c-0.76655,0 -1.5258,-0.19303 -2.19562,-0.559c-0.06144,-0.0324 -0.12944,-0.07369 -0.19745,-0.11493l-0.0435,-0.02646c-0.03397,-0.02014 -0.06801,-0.04124 -0.10136,-0.06333c-0.28502,-0.18483 -0.5549,-0.40589 -0.79017,-0.64937l-6.88319,-7.1263c-1.75375,-1.81582 -1.70337,-4.71997 0.11277,-6.47441c0.85781,-0.82856 1.98712,-1.2849 3.17972,-1.2849c1.25371,0 2.423,0.49668 3.29406,1.39793l3.66156,3.79069l18.51129,-18.61201c0.8657,-0.87075 2.01895,-1.35007 3.24683,-1.35007c1.21778,0 2.36441,0.47269 3.22758,1.33181c1.78999,1.78021 1.79788,4.68536 0.01794,6.47504z" fill="#828282" stroke-width="0.59874"/><path d="M566.68883,274.54033l-21.79772,21.91712c-1.16619,1.17276 -2.93319,1.38057 -4.31566,0.62601c-0.06048,-0.0324 -0.11876,-0.06895 -0.17793,-0.10451c-0.03056,-0.01925 -0.06112,-0.03656 -0.09105,-0.05607c-0.22606,-0.14706 -0.44087,-0.31901 -0.63643,-0.5215l-6.88288,-7.12567c-1.39415,-1.44358 -1.35449,-3.74409 0.08942,-5.13854c1.443,-1.39383 3.74314,-1.35385 5.1376,0.08973l4.33176,4.48413l19.19116,-19.29572c1.41523,-1.42312 3.71574,-1.42944 5.13791,-0.01447c1.42344,1.41555 1.42944,3.71605 0.01383,5.13949z" fill="url(#color-3)" stroke-width="0.59874"/></g></g></svg>